<svg width="627" height="853" viewBox="0 0 627 853" fill="none" xmlns="http://www.w3.org/2000/svg">
<path d="M161 26C136.105 38.8263 109.157 67.5672 94.9984 83.9536C91.3999 88.1181 95.0102 94.2004 100.427 93.2266L174 80C174 80 244.445 72.9592 282.5 85C323.607 98.0067 347.294 113.137 375.5 144.5C400.926 172.772 413.773 191.238 428 226.5C448.872 278.232 456.13 314.165 443.5 368.5C431.801 418.829 412.641 446.078 375.5 482C338.556 517.732 260.5 546 260.5 546C260.5 546 212.864 569.537 170 588C127.136 606.463 83.5629 629.034 52 677.5C19.8208 726.912 4.18313 818.827 0.106861 846.147C-0.515048 850.315 2.72601 854 6.94029 854H622C625.866 854 629 850.866 629 847V421.5V228.777C629 227.297 628.535 225.861 627.657 224.67C619.07 213.031 570.971 148.685 531.5 113.5L531.149 113.187C499.557 85.0265 481.148 68.6161 443.5 49C388.519 20.3524 351.942 4.09645 290 1.50001C239.205 -0.629139 206.194 2.7158 161 26Z" fill="#3E835B"/>
</svg>
